<?xml version="1.0" encoding="utf-8"?>
<!-- Generator: Adobe Illustrator 25.4.1, SVG Export Plug-In . SVG Version: 6.00 Build 0)  -->
<svg version="1.1" id="Layer_1" xmlns="http://www.w3.org/2000/svg" xmlns:xlink="http://www.w3.org/1999/xlink" x="0px" y="0px"
	 viewBox="0 0 600 160.6" style="enable-background:new 0 0 600 160.6;" xml:space="preserve">
<style type="text/css">
	.st0{fill-rule:evenodd;clip-rule:evenodd;fill:#FFFFFF;}
	.st1{fill:#FFFFFF;}
</style>
<g>
	<g>
		<g>
			<path class="st0" d="M154.8,74.8v42h-16.6V95.5c-2.5,4.3-4.4,9.5-4.4,17.9V137H96.8c-16,0-32.6-3.6-45.5-13.4
				c-6.4-4.9-11-10.9-14.9-18.7c-4.2-8.5-6.3-16.9-6.2-25.5c0.1-6.3,1.3-12.6,3.7-19.1c5.9-16.1,17.1-26.5,33.1-33
				c5.2-2.1,15.5-3.7,27.5-3.7h47.3c2.3,9.8,7.9,17.8,16.6,22.6c-24.7,0-40.6,0.1-65.4,0c-13.3-0.1-20.6,2.6-28.1,8.5
				c-5.3,4.2-11.6,16-11.6,25.1c0,15.8,13.8,33.6,32.5,33.6h24.2c0-7.9,9-15,18.1-21.9h-20V74.8h37.5c2.3,0,3,0,3,0H154.8z"/>
			<path class="st0" d="M74.9,79.7c0,3.9-3.1,7-7,7s-7-3.2-7-7s3.2-7,7-7S74.9,75.8,74.9,79.7z"/>
			<path class="st0" d="M74.6,93.4c0-3.9,3.2-7,7-7s7,3.1,7,7s-3.1,7-7,7S74.6,97.2,74.6,93.4z"/>
			<path class="st0" d="M74.6,66c0-3.9,3.2-7,7-7s7,3.2,7,7c0,3.9-3.1,7-7,7S74.6,69.9,74.6,66z"/>
			<path class="st0" d="M88.2,79.7c0-3.9,3.1-7,7-7c3.9,0,7,3.1,7,7s-3.2,7-7,7C91.4,86.7,88.2,83.6,88.2,79.7z"/>
		</g>
	</g>
	<g>
		<g>
			<g>
				<path class="st1" d="M214.1,125.8c-2.9,0-5.7-0.6-8.3-1.7c-2.6-1.1-4.9-2.7-6.8-4.6c-2-2-3.5-4.2-4.6-6.8
					c-1.1-2.6-1.7-5.4-1.7-8.4v-48c0-2.9,0.6-5.7,1.7-8.3c1.1-2.6,2.7-4.9,4.6-6.8c2-1.9,4.2-3.5,6.8-4.6c2.6-1.1,5.3-1.7,8.3-1.7
					h13.5c2.8,0,5.5,0.5,8.1,1.6c2.6,1,4.8,2.5,6.7,4.3c1.9,1.8,3.5,4,4.6,6.5c1.2,2.5,1.8,5.1,2,7.8h-12.8
					c-0.3-2.1-1.3-3.8-2.9-5.3c-1.6-1.4-3.5-2.1-5.7-2.1h-13.5c-2.4,0-4.5,0.8-6.1,2.5c-1.7,1.7-2.5,3.7-2.5,6.1v48
					c0,2.4,0.8,4.5,2.5,6.2c1.7,1.7,3.7,2.6,6.1,2.6h13.5c2.4,0,4.5-0.9,6.2-2.6c1.7-1.7,2.6-3.8,2.6-6.2V91.8H228V79h21.2v25.2
					c0,3-0.6,5.8-1.7,8.4c-1.1,2.6-2.7,4.9-4.6,6.8c-2,2-4.2,3.5-6.8,4.6c-2.6,1.1-5.4,1.7-8.4,1.7H214.1z"/>
				<path class="st1" d="M297.4,104.4c0-2.7-0.9-4.9-2.8-6.7c-1.8-1.8-4.1-2.7-6.7-2.7h-14.2c-1.4,0-2.7,0.5-3.7,1.5
					c-1,1-1.6,2.2-1.7,3.6V124h-12.8V36.7h53.9v24.1c0,4.5-0.8,8.9-2.4,13c-1.6,4.2-3.9,8-6.9,11.4l-1,1.1l1.4,0.9
					c2.9,1.6,5.2,3.8,7,6.7c1.7,2.8,2.6,5.9,2.6,9.3V124h-12.8V104.4z M268.4,85h4.3c3.3,0,6.5-0.6,9.4-1.9c2.9-1.3,5.5-3,7.7-5.2
					c2.2-2.2,4-4.7,5.2-7.7c1.3-2.9,1.9-6.1,1.9-9.4V49.4h-28.5V85z"/>
				<path class="st1" d="M337.4,125.9c-2.9,0-5.7-0.6-8.3-1.7c-2.6-1.1-4.9-2.7-6.8-4.6c-2-2-3.5-4.2-4.6-6.8
					c-1.1-2.6-1.7-5.4-1.7-8.3v-48c0-2.9,0.6-5.7,1.7-8.3c1.1-2.6,2.7-4.9,4.6-6.8c2-1.9,4.2-3.4,6.8-4.6c2.6-1.1,5.4-1.7,8.3-1.7
					H351c3,0,5.8,0.6,8.4,1.7c2.6,1.1,4.9,2.7,6.8,4.6c2,1.9,3.5,4.2,4.6,6.8c1.1,2.6,1.7,5.4,1.7,8.3v48c0,2.9-0.6,5.7-1.7,8.3
					c-1.1,2.6-2.7,4.9-4.6,6.8c-2,2-4.2,3.5-6.8,4.6c-2.6,1.1-5.4,1.7-8.4,1.7H337.4z M337.4,47.6c-2.4,0-4.5,0.9-6.1,2.6
					c-1.7,1.7-2.5,3.8-2.5,6.2v48c0,2.4,0.8,4.5,2.5,6.2c1.7,1.7,3.7,2.6,6.1,2.6H351c2.4,0,4.5-0.9,6.2-2.6
					c1.7-1.7,2.6-3.8,2.6-6.2v-48c0-2.4-0.9-4.5-2.6-6.2c-1.7-1.7-3.8-2.6-6.2-2.6H337.4z"/>
				<path class="st1" d="M440.2,49.5h-3.3l-14.3,55.7h-12.9c-0.3-1.3-0.9-3.6-1.7-6.7c-0.8-3.1-1.7-6.7-2.7-10.6
					c-1-3.9-2.1-8-3.2-12.4c-1.1-4.3-2.2-8.3-3.1-11.9c-0.9-3.6-1.7-6.6-2.3-9.1c-0.6-2.5-1-3.9-1.1-4.2l-0.2-0.9h-3.3v74.6h-12.8
					V36.6h16.4c2.3,0,4.3,0.7,6.1,2.1c1.8,1.4,3,3.3,3.6,5.6c0.5,1.8,1.1,4.1,1.7,6.9c0.6,2.8,1.3,5.7,2,8.7
					c0.7,3.1,1.4,6.1,2.1,9.1c0.7,3,1.3,5.7,1.8,8.2c0.5,2.4,1.1,5.2,1.8,8.3l1.3,5.6l1.3-5.6c0-0.1,0.2-0.9,0.6-2.4
					c0.4-1.5,0.8-3.5,1.4-5.9c0.5-2.4,1.1-5.1,1.8-8.2c0.7-3,1.4-6,2.1-9c0.7-3,1.4-5.9,2-8.7c0.6-2.8,1.2-5.1,1.7-7
					c0.6-2.3,1.8-4.2,3.6-5.6c1.8-1.4,3.8-2.1,6-2.1H453v87.6h-12.8V49.5z"/>
				<path class="st1" d="M460.6,124V36.7h49.3v12.7h-36.5v35.5h25.8v12.8h-25.8v13.5h36.5V124H460.6z"/>
				<path class="st1" d="M557,104.4c0-2.7-0.9-4.9-2.8-6.7c-1.8-1.8-4.1-2.7-6.6-2.7h-14.2c-1.4,0-2.7,0.5-3.7,1.5
					c-1,1-1.6,2.2-1.7,3.6V124h-12.8V36.7h53.9v24.1c0,4.5-0.8,8.9-2.4,13c-1.6,4.2-3.9,8-6.9,11.4l-1,1.1l1.4,0.9
					c2.9,1.6,5.2,3.8,7,6.7c1.7,2.8,2.6,5.9,2.6,9.3V124H557V104.4z M528,85h4.3c3.3,0,6.5-0.6,9.4-1.9c2.9-1.3,5.5-3,7.7-5.2
					c2.2-2.2,4-4.7,5.2-7.7c1.3-2.9,1.9-6.1,1.9-9.4V49.4H528V85z"/>
			</g>
		</g>
	</g>
</g>
</svg>
